<svg width="24" height="24" viewBox="0 0 24 24" fill="none" xmlns="http://www.w3.org/2000/svg">
<g clip-path="url(#clip0_43_5091)">
<path d="M6.66667 6.66634C6.84348 6.66634 7.01305 6.5961 7.13807 6.47108C7.2631 6.34605 7.33333 6.17649 7.33333 5.99967V1.99967C7.33333 1.82286 7.2631 1.65329 7.13807 1.52827C7.01305 1.40325 6.84348 1.33301 6.66667 1.33301C6.48986 1.33301 6.32029 1.40325 6.19526 1.52827C6.07024 1.65329 6 1.82286 6 1.99967V5.99967C6 6.17649 6.07024 6.34605 6.19526 6.47108C6.32029 6.5961 6.48986 6.66634 6.66667 6.66634Z" fill="#202020"/>
<path d="M20.0008 9.00008C18.6747 9.00008 17.403 8.47329 16.4653 7.53561C15.5276 6.59793 15.0008 5.32616 15.0008 4.00008H8.13416V6.00008C8.13416 6.38906 7.97963 6.76211 7.70458 7.03717C7.42953 7.31222 7.05647 7.46674 6.66749 7.46674C6.27851 7.46674 5.90545 7.31222 5.6304 7.03717C5.35535 6.76211 5.20082 6.38906 5.20082 6.00008V4.00008H2.53416C2.3755 3.99827 2.2181 4.0283 2.07126 4.08838C1.92441 4.14847 1.79111 4.23739 1.67923 4.34989C1.56735 4.4624 1.47917 4.59619 1.4199 4.74336C1.36063 4.89054 1.33147 5.0481 1.33416 5.20674V20.1267C1.33151 20.2826 1.35959 20.4374 1.41679 20.5824C1.47399 20.7274 1.55919 20.8597 1.66753 20.9718C1.77587 21.0838 1.90522 21.1734 2.0482 21.2355C2.19118 21.2975 2.34498 21.3308 2.50082 21.3334H21.5008C21.6567 21.3308 21.8105 21.2975 21.9534 21.2355C22.0964 21.1734 22.2258 21.0838 22.3341 20.9718C22.4425 20.8597 22.5277 20.7274 22.5849 20.5824C22.6421 20.4374 22.6701 20.2826 22.6675 20.1267V8.22674C21.8702 8.73279 20.9452 9.00105 20.0008 9.00008ZM6.66749 17.3334H5.33416V16.0001H6.66749V17.3334ZM6.66749 14.0001H5.33416V12.6667H6.66749V14.0001ZM6.66749 10.6667H5.33416V9.33341H6.66749V10.6667ZM10.6675 17.3334H9.33416V16.0001H10.6675V17.3334ZM10.6675 14.0001H9.33416V12.6667H10.6675V14.0001ZM10.6675 10.6667H9.33416V9.33341H10.6675V10.6667ZM14.6675 17.3334H13.3342V16.0001H14.6675V17.3334ZM14.6675 14.0001H13.3342V12.6667H14.6675V14.0001ZM14.6675 10.6667H13.3342V9.33341H14.6675V10.6667ZM18.6675 17.3334H17.3342V16.0001H18.6675V17.3334ZM18.6675 14.0001H17.3342V12.6667H18.6675V14.0001ZM18.6675 10.6667H17.3342V9.33341H18.6675V10.6667Z" fill="#202020"/>
<path d="M19.9993 7.33366C21.8403 7.33366 23.3327 5.84127 23.3327 4.00033C23.3327 2.15938 21.8403 0.666992 19.9993 0.666992C18.1584 0.666992 16.666 2.15938 16.666 4.00033C16.666 5.84127 18.1584 7.33366 19.9993 7.33366Z" fill="#202020"/>
</g>
<defs>
<clipPath id="clip0_43_5091">
<rect width="24" height="24" fill="white"/>
</clipPath>
</defs>
</svg>
