<?xml version="1.0" encoding="UTF-8"?>
<svg version="1.1" xmlns="http://www.w3.org/2000/svg" width="39" height="38">
<path d="M0 0 C4.96622349 -0.02465098 9.93241166 -0.04283649 14.89868164 -0.05493164 C16.58944316 -0.0599719 18.28020029 -0.06680405 19.97094727 -0.07543945 C22.39600707 -0.08751857 24.82100944 -0.09323123 27.24609375 -0.09765625 C28.38672523 -0.10539818 28.38672523 -0.10539818 29.55039978 -0.11329651 C31.3673257 -0.11349238 33.18413127 -0.06197277 35 0 C36.70018003 1.70018003 36.12801936 3.82570135 36.13894653 6.09336853 C36.1369223 6.80376785 36.13489807 7.51416718 36.1328125 8.24609375 C36.13376923 8.97240494 36.13472595 9.69871613 36.13571167 10.44703674 C36.13639344 11.9862578 36.13453937 13.52548171 36.13037109 15.06469727 C36.12503043 17.42405657 36.13031215 19.78322484 36.13671875 22.14257812 C36.13605782 23.63541709 36.13477634 25.12825593 36.1328125 26.62109375 C36.13483673 27.32946884 36.13686096 28.03784393 36.13894653 28.76768494 C36.11495714 33.77008571 36.11495714 33.77008571 35 36 C34.01 35.67 33.02 35.34 32 35 C31.67 25.76 31.34 16.52 31 7 C27.69548828 10.35671875 27.69548828 10.35671875 24.32421875 13.78125 C22.1913398 15.93750838 20.05588757 18.09118646 17.92016602 20.24462891 C16.43437795 21.74552668 14.95129045 23.24910274 13.47094727 24.75537109 C11.34571125 26.91689337 9.21102848 29.06867618 7.07421875 31.21875 C6.41161545 31.89683716 5.74901215 32.57492432 5.06632996 33.27355957 C4.44591324 33.89420288 3.82549652 34.51484619 3.1862793 35.15429688 C2.37020454 35.98036438 2.37020454 35.98036438 1.53764343 36.82312012 C0 38 0 38 -3 38 C-2.41799126 34.7351256 -1.4813186 33.11126021 0.86743164 30.79199219 C1.46797867 30.19167175 2.0685257 29.59135132 2.68727112 28.97283936 C3.33832321 28.33727112 3.98937531 27.70170288 4.66015625 27.046875 C5.32462265 26.38665344 5.98908905 25.72643188 6.6736908 25.04620361 C8.79635563 22.9403236 10.92921605 20.84511672 13.0625 18.75 C14.50393934 17.32360768 15.94470309 15.8965323 17.38476562 14.46875 C20.91418576 10.96984359 24.45719614 7.48555927 28 4 C14.14 3.505 14.14 3.505 0 3 C0 2.01 0 1.02 0 0 Z " fill="#272727" transform="translate(3,0)"/>
</svg>
