<svg xmlns="http://www.w3.org/2000/svg" width="39" height="38"><path d="M3 0c4.966-.025 9.932-.043 14.899-.055 1.69-.005 3.381-.012 5.072-.02 2.425-.013 4.85-.018 7.275-.023l2.304-.015c1.817 0 3.634.051 5.45.113 1.7 1.7 1.128 3.826 1.139 6.093l-.006 2.153.003 2.201c0 1.54-.001 3.078-.006 4.618-.005 2.36 0 4.718.007 7.078 0 1.492-.002 2.985-.004 4.478l.006 2.147C39.115 33.77 39.115 33.77 38 36l-3-1-1-28-6.676 6.781c-2.133 2.157-4.268 4.31-6.404 6.464a1749.61 1749.61 0 00-4.45 4.51c-2.124 2.162-4.259 4.314-6.396 6.464l-2.008 2.055-1.88 1.88-1.648 1.67C3 38 3 38 0 38c.582-3.265 1.519-4.889 3.867-7.208.601-.6 1.202-1.2 1.82-1.82l1.973-1.925 2.014-2c2.122-2.107 4.255-4.202 6.389-6.297 1.44-1.426 2.882-2.853 4.322-4.281C23.915 10.969 27.457 7.486 31 4L3 3V0z" fill="#272727"/></svg>